# xmcd CD database file
#
# Track frame offsets:
#	150
#	13852
#	41280
#	54757
#	76815
#	103230
#	114277
#	134640
#	155322
#	166502
#	178900
#	201622
#	226500
#	243562
#	262782
#	276050
#
# Disc length: 3863 seconds
#
# Revision: 0
# Processed by: cddbd v1.5.1PL0 Copyright (c) Steve Scherf et al.
# Submitted via: CDex 1.51
#
DISCID=c60f1510
DTITLE=The Lee Hyde Sextet - Gentle Jazz
DYEAR=1998
DGENRE=Jazz
TTITLE0=That Old Black Magic
TTITLE1=Doodlin'
TTITLE2=Triste
TTITLE3=Joy Spring
TTITLE4=Everything Happens to Me
TTITLE5=Sonny Speaks
TTITLE6=TV Themes Medley
TTITLE7=Bourbon Street
TTITLE8=Laura
TTITLE9=El Aitch
TTITLE10=Serenata
TTITLE11=I Can't Get Started
TTITLE12=Our Love Is Here to Stay
TTITLE13=Two For The Road
TTITLE14=The Touch of Your Lips
TTITLE15=The Good Life
EXTD=YEAR: 1998
EXTT0=
EXTT1=
EXTT2=
EXTT3=
EXTT4=
EXTT5=
EXTT6=
EXTT7=
EXTT8=
EXTT9=
EXTT10=
EXTT11=
EXTT12=
EXTT13=
EXTT14=
EXTT15=
PLAYORDER=
